<svg width="20" height="30" viewBox="0 0 20 30" fill="none" xmlns="http://www.w3.org/2000/svg">
<path d="M18.3925 26.1818C18.3925 26.1818 17.0401 23.5862 16.5558 21.4733C15.9521 18.4692 21.0053 14.3348 18.1636 11.0521C17.6948 10.6413 19.1112 8.37461 18.7673 7.78004C18.5374 8.44029 17.7623 9.50181 17.7623 9.50181C17.7623 9.50181 17.7267 6.30804 17.0957 5.60499C17.2535 6.86121 17.1595 8.15257 17.1595 8.15257C17.1595 8.15257 16.1982 5.40436 15.2361 4.99535C16.232 5.96659 16.1837 7.46452 16.1837 7.46452C16.1837 7.46452 14.5759 4.39298 12.3361 4.44999C13.9712 5.33961 14.3734 6.60317 14.3734 6.60317C14.3734 6.60317 3.78099 5.16811 5.70433 1.09073C4.21139 1.4642 4.21139 5.56938 4.21139 5.56938C4.21139 5.56938 2.74681 3.10021 5.18724 0C0.105739 3.18643 2.05735 8.8999 2.05735 8.8999C2.05735 8.8999 0.966622 8.81368 0.392128 4.79425C-0.726872 9.73251 2.40208 12.3157 2.40208 12.3157C2.40208 12.3157 1.16726 14.4972 1.85671 15.5309C2.54617 16.5632 0.937413 18.8905 0.966622 19.6366C0.995831 20.3825 2.17317 20.2968 2.17317 20.2968C2.17317 20.2968 1.71262 21.5316 2.71846 21.6748C2.48869 21.7606 2.08742 22.5648 3.23555 23.0245C2.89082 23.1103 2.2023 27.1293 7.1397 24.6031C8.97643 25.5498 9.98141 30.0001 9.98141 30.0001L18.3925 26.1818Z" fill="black"/>
</svg>
