<svg width="31" height="30" viewBox="0 0 31 30" fill="none" xmlns="http://www.w3.org/2000/svg">
<g clip-path="url(#clip0_1_201)">
<path d="M28.0434 4.7896C24.0911 10.2471 16.8993 15.6217 7.01588 20.8537C7.49002 19.811 7.86456 19.0117 8.1169 18.6654C8.99009 17.4598 10.7662 14.0455 10.7662 14.0455C10.7662 14.0455 11.702 14.697 11.8293 14.3965C11.9542 14.0951 17.2492 1.492 17.2492 1.492C17.2492 1.492 14.7527 -1.29435 13.86 0.748463C13.2715 2.0977 8.01365 14.1349 4.51423 22.1454C3.83913 22.4843 3.15571 22.826 2.45841 23.1649C1.67546 23.5085 2.08014 24.3669 3.30614 24.9096C2.15238 27.5533 1.38514 29.3099 1.38514 29.3099C1.38514 29.3099 1.36151 30.1888 1.99584 29.9627C3.07093 28.6811 4.07053 26.9578 4.94935 25.2345C11.5903 24.6529 29.2424 10.3196 30.1462 8.99687C31.077 7.63843 28.2443 3.43576 28.0434 4.7896ZM5.97639 23.7123C5.76902 23.9067 5.44261 23.8947 5.24951 23.6891C5.05506 23.4816 5.06617 23.1557 5.27314 22.9612C5.48052 22.7668 5.80605 22.7778 6.0005 22.9854C6.1936 23.1918 6.18345 23.5187 5.97639 23.7123Z" fill="black"/>
</g>
<defs>
<clipPath id="clip0_1_201">
<rect width="30" height="30" fill="white" transform="translate(0.859375)"/>
</clipPath>
</defs>
</svg>
