<svg width="31" height="30" viewBox="0 0 31 30" fill="none" xmlns="http://www.w3.org/2000/svg">
<path d="M13.514 28.6509H21.9693V30H13.514V28.6509ZM21.1511 6.24462H21.9662V28.2067H13.513V6.24359H14.5222V4.43683H15.0222V3.84697H16.6203V1.42454L19.2793 1.4266V1.90283H19.4952V3.25815H19.2793V3.84697H20.6852V4.43786H21.1491V6.24462H21.1511ZM15.6265 7.78692H14.5563V26.8803H15.6265V7.78692ZM2.7995 9.34575H10.7703V30H2.7995V9.34575ZM3.40175 16.4137H10.1691V9.94697H3.40175V16.4137ZM9.31684 4.73331H4.30358V8.44392H9.31787L9.31684 4.73331ZM27.3193 0.298543L27.2346 0L19.8392 2.0991L19.9239 2.39764L27.3193 0.298543ZM20.0551 2.84701L19.9704 3.14555L27.3668 5.24465L27.4505 4.94611L20.0551 2.84701ZM20.0189 2.80672L26.9671 2.73648L26.965 2.42554L20.0158 2.49681L20.0189 2.80672Z" fill="black"/>
</svg>
