<svg width="31" height="30" viewBox="0 0 31 30" fill="none" xmlns="http://www.w3.org/2000/svg">
<g clip-path="url(#clip0_1_149)">
<path d="M29.4704 12.112C27.9098 11.9646 18.4196 11.623 17.055 12.112C15.6903 12.6009 9.42015 17.6868 7.88209 18.8069C6.34403 19.9271 8.32946 22.0391 10.1363 20.8149C11.9431 19.5907 14.8181 17.7752 16.0857 16.9516C17.3532 16.1279 18.8028 17.6365 17.7018 18.7116C16.8868 19.5092 12.0125 23.0639 10.9773 23.1125C9.94209 23.161 5.28802 23.1125 2.69915 23.1125C0.110286 23.1125 0.372121 26.2424 2.69915 26.2424C4.25109 26.2424 14.1436 26.7799 15.1146 26.2424C16.0857 25.7048 23.3945 20.0814 24.291 19.8803C25.1875 19.6792 27.3376 19.8803 29.4652 19.8803C31.5929 19.8803 31.031 12.2593 29.4704 12.112Z" fill="black"/>
<path d="M7.03937 15.0598C8.1431 15.0598 9.20162 14.6214 9.98207 13.8409C10.7625 13.0605 11.201 12.002 11.201 10.8982C11.201 8.59894 7.03937 3.51831 7.03937 3.51831C7.03937 3.51831 2.87776 8.59894 2.87776 10.8982C2.87776 12.002 3.31622 13.0605 4.09667 13.8409C4.87712 14.6214 5.93564 15.0598 7.03937 15.0598Z" fill="black"/>
</g>
<defs>
<clipPath id="clip0_1_149">
<rect width="30" height="30" fill="white" transform="translate(0.859375)"/>
</clipPath>
</defs>
</svg>
