<svg width="31" height="30" viewBox="0 0 31 30" fill="none" xmlns="http://www.w3.org/2000/svg">
<g clip-path="url(#clip0_1_178)">
<path d="M15.6002 26.1674V19.5595H21.1501C21.2751 19.5968 21.3888 19.6015 21.4886 19.5595C22.8706 12.4556 28.0489 3.50807 26.9672 1.39496C25.8854 -0.719975 22.6794 -0.175327 21.7348 1.33997C21.0121 2.49909 20.4125 3.26561 19.5144 9.36337C17.6009 8.73862 14.0336 7.89465 11.6636 9.27574C9.36677 10.6149 8.52097 12.8436 8.21512 14.1006C6.60327 13.9579 5.35836 13.999 4.89862 14.3626C3.04056 15.8398 4.89862 19.5596 4.89862 19.5596H7.30593V21.6326H4.65993V22.8738H7.87805V22.7329V21.6334V19.5604H13.6695V26.1683C9.80416 26.3874 6.56693 27.9084 5.16348 30H24.1071C22.7037 27.9084 19.4669 26.3874 15.6002 26.1674ZM12.8157 11.2527C14.422 10.3183 17.5105 11.0829 19.1955 11.6714C19.0305 12.9321 18.8551 14.371 18.6658 16.0113C16.4399 15.4901 13.2656 14.7972 10.504 14.3831C10.7581 13.4907 11.3694 12.0948 12.8157 11.2527Z" fill="black"/>
</g>
<defs>
<clipPath id="clip0_1_178">
<rect width="30" height="30" fill="white" transform="translate(0.59375)"/>
</clipPath>
</defs>
</svg>
