<svg width="31" height="30" viewBox="0 0 31 30" fill="none" xmlns="http://www.w3.org/2000/svg">
<g clip-path="url(#clip0_1_156)">
<path d="M24.3453 3.56379C23.919 3.40383 17.5789 1.04864 12.2513 0.276114C12.1944 0.26717 12.1408 0.262496 12.0848 0.254922C11.7889 0.197065 11.4421 0.158467 11.0606 0.133568C6.53563 -0.317601 3.37922 0.517935 2.82306 0.529217C-0.39209 0.529217 0.315404 10.7677 2.79059 10.8476C2.85126 10.8494 2.90533 10.8518 2.96279 10.8537C3.05916 10.8575 3.33023 10.8693 3.72588 10.8834C5.36125 10.9634 5.69059 11.1167 6.31017 11.8596C7.03281 12.7276 8.32806 14.5389 8.32806 16.9492C8.32806 19.3589 8.32806 24.6639 8.32806 25.3876C8.32806 25.8166 8.58922 26.0556 9.0893 26.1818C9.09961 26.1864 9.10058 26.1911 9.11331 26.1958C10.2838 26.6494 9.76536 30 9.76536 30H10.8023C10.8023 30 10.392 26.5214 11.5983 26.2664C12.7994 26.1883 14.0213 25.9681 14.0109 25.4619C13.9963 24.7891 13.8665 20.1098 14.0109 16.9755C14.0598 15.901 13.873 14.8735 13.6331 13.9763H14.1535V12.6265H13.2197C12.9087 11.7082 12.6791 11.0946 12.896 10.9672C12.9125 10.9634 12.9327 10.9587 12.9444 10.9549C12.9529 10.9511 12.9618 10.9403 12.9703 10.9347C16.0505 10.3052 23.5718 8.26097 24.304 8.06056V8.08836L29.5816 9.92551L29.5845 1.73276L24.3453 3.56379Z" fill="black"/>
</g>
<defs>
<clipPath id="clip0_1_156">
<rect width="30" height="30" fill="white" transform="translate(0.125)"/>
</clipPath>
</defs>
</svg>
